<?xml version="1.0" standalone="no"?>
<!DOCTYPE svg PUBLIC "-//W3C//DTD SVG 20010904//EN"
 "http://www.w3.org/TR/2001/REC-SVG-20010904/DTD/svg10.dtd">
<svg version="1.0" xmlns="http://www.w3.org/2000/svg"
 width="298.000000pt" height="298.000000pt" viewBox="0 0 298.000000 298.000000"
 preserveAspectRatio="xMidYMid meet">
<metadata>
Created by potrace 1.14, written by Peter Selinger 2001-2017
</metadata>
<g transform="translate(0.000000,298.000000) scale(0.100000,-0.100000)"
fill="#000000" stroke="none">
<path d="M1215 2910 c-145 -38 -327 -127 -433 -211 -89 -71 -202 -180 -235
-229 -17 -25 -47 -65 -67 -90 -78 -94 -220 -409 -220 -486 0 -13 -10 -52 -23
-86 -20 -59 -22 -79 -22 -298 1 -234 1 -236 34 -355 34 -125 56 -184 123 -325
35 -74 128 -225 148 -240 4 -3 21 -25 39 -49 40 -57 212 -214 271 -249 25 -14
59 -36 75 -48 44 -33 183 -90 320 -132 119 -35 121 -36 305 -36 179 0 188 1
293 32 153 45 283 102 390 173 238 156 519 531 512 682 -2 50 12 75 22 38 8
-30 38 -27 40 4 4 52 6 60 14 65 5 3 9 20 11 38 1 18 5 32 9 32 4 0 7 33 8 73
0 39 3 99 7 132 4 49 12 159 14 210 1 20 -7 170 -9 170 -1 0 -4 15 -7 33 -2
18 -11 43 -19 56 -17 26 -25 58 -30 121 -7 95 -17 125 -46 141 -16 8 -29 18
-30 22 0 4 -2 14 -4 22 -18 78 -18 81 1 73 15 -6 14 1 -9 41 -15 27 -27 54
-27 60 0 6 -14 19 -30 28 -17 9 -30 24 -30 33 0 9 -4 14 -9 11 -7 -5 -21 16
-32 49 -1 6 -12 17 -22 26 -11 8 -20 28 -19 43 0 20 -3 24 -9 15 -7 -11 -10
-9 -15 8 -4 13 -10 20 -15 18 -4 -3 -6 -12 -3 -19 3 -8 1 -17 -5 -21 -12 -7
-24 16 -25 51 -2 26 -12 39 -29 39 -7 0 -13 12 -15 28 -2 15 -8 25 -13 22 -5
-4 -9 -1 -9 5 0 21 -81 91 -99 85 -10 -3 -27 8 -45 30 -23 27 -34 33 -52 29
-18 -5 -30 1 -48 23 -13 16 -40 35 -60 43 -20 7 -36 18 -36 22 0 5 -4 7 -9 3
-5 -3 -17 2 -25 11 -9 8 -16 12 -16 9 0 -4 -11 0 -25 9 -14 9 -30 14 -35 11
-6 -3 -10 -1 -10 5 0 6 -4 9 -9 5 -5 -3 -12 -1 -15 4 -4 5 -137 9 -314 9 -267
1 -316 -2 -377 -18z"/>
<path d="M1960 2920 c20 -13 43 -13 35 0 -3 6 -16 10 -28 10 -18 0 -19 -2 -7
-10z"/>
<path d="M2726 2922 c-3 -5 1 -9 9 -9 8 0 12 4 9 9 -3 4 -7 8 -9 8 -2 0 -6 -4
-9 -8z"/>
</g>
</svg>
